<?xml version="1.0" encoding="utf-8"?>
<!-- Generator: Adobe Illustrator 13.0.2, SVG Export Plug-In . SVG Version: 6.00 Build 14948)  -->
<!DOCTYPE svg PUBLIC "-//W3C//DTD SVG 1.1 Tiny//EN" "http://www.w3.org/Graphics/SVG/1.1/DTD/svg11-tiny.dtd">
<svg version="1.1" baseProfile="tiny" id="Layer_1" xmlns="http://www.w3.org/2000/svg" xmlns:xlink="http://www.w3.org/1999/xlink"
	 x="0px" y="0px" width="180px" height="72px" viewBox="0 0 180 72" xml:space="preserve">
<path fill="#FFFFFF" d="M177.094,12.911c-0.098-0.702,0.121-0.487-0.723,0.106c-0.74,0.523-1.508,1.01-2.274,1.498
	c-2.77,1.764-5.623,3.4-8.499,4.982c-7.282,4.012-14.83,7.589-22.64,10.452c-6.905,2.533-15.608,5.351-22.893,2.864
	c-2.807-0.958-4.671-2.798-5.769-5.092c6.096-2.658,12.159-5.525,17.235-9.715c6.501-5.364,6.698-14.933-3.259-15.697
	c-12.267-0.942-20.279,14.455-17.02,24.619c-3.844,1.7-7.836,3.312-11.812,4.992c1.678-9.061,2.707-18.302,4.353-27.215
	c0.242-1.312-2.727-0.84-2.956,0.299c-1.821,9.006-8.25,18.253-14.881,24.371c-3.578,3.301-10.351,6.391-9.924-0.911
	c0.284-4.89,1.578-9.689,1.18-14.624C76.047-0.586,63.372-2.162,52.575,2.016c-3.16-0.412-6.428-0.285-9.301,0.029
	C28.008,3.723,13.502,11.721,0.599,19.509c-1.771,1.067,0.839,1.812,1.954,1.141C14.348,13.542,27.14,6.705,40.854,4.293
	c2.537-0.445,5.307-0.717,8.03-0.584c-2.412,1.287-4.636,2.846-6.479,4.594c-5.826,5.516-9.801,15.374-5.875,22.966
	c2.928,5.659,9.756,7.1,15.488,5.689C63.252,34.193,70.875,17.201,63.51,7.546c-1.954-2.562-4.717-4.069-7.766-4.903
	c3.293-0.93,6.811-1.147,10.119-0.41c5.457,1.216,7.598,5.983,8.286,11.107c0.688,5.115-0.64,10.354-1.114,15.429
	c-0.23,2.476-0.156,5.091,2.439,6.082c6.693,2.557,14.143-5.62,17.699-9.97c2.013-2.462,4.002-5.214,5.731-8.136
	c-0.856,5.543-1.695,11.093-2.761,16.593c-6.125,2.682-12.105,5.635-17.324,9.461c-6.272,4.6-12.722,13.072-12.244,21.251
	c0.258,4.418,3.719,7.713,8.057,7.936c8.973,0.462,14.867-10.081,17.979-16.874c3.028-6.607,4.934-13.613,6.362-20.758
	c2.497-1.049,4.962-2.07,7.304-3.133c1.872-0.848,3.786-1.669,5.706-2.496c1.577,3.194,4.481,5.646,9.01,6.506
	c12.337,2.343,26.637-4.745,37.374-9.932c5.492-2.653,10.862-5.59,16.073-8.76c0.998-0.606,5.777-2.777,5.552-4.404
	C179.833,10.979,176.922,11.674,177.094,12.911 M60.368,8.365c10.896,11.748-9.213,38.184-20.492,22.592
	c-6.885-9.516,3.526-22.614,11.83-26.77c0.092-0.045,0.188-0.082,0.28-0.126C55.157,4.641,58.11,5.932,60.368,8.365 M93.239,45.688
	c-2.063,7.188-7.931,24.915-18.086,24.392c-8.238-0.423-5.189-11.636-3.156-15.788c4.631-9.451,14.117-14.396,23.662-18.525
	C94.968,39.099,94.18,42.411,93.239,45.688 M129.141,4.478c3.757,0.826,5.142,4.863,3.902,8.036
	c-1.335,3.42-5.033,5.805-7.926,7.762c-3.464,2.342-7.739,3.861-11.523,5.6C110.959,16.513,118.716,2.186,129.141,4.478"/>
<path fill="#FFFFFF" d="M106.957,47.263v1.436h0.049c0.276-0.527,0.636-0.939,1.081-1.236c0.444-0.297,1.013-0.445,1.706-0.445
	c0.561,0,1.067,0.139,1.524,0.412c0.456,0.274,0.761,0.692,0.914,1.252c0.253-0.56,0.626-0.978,1.122-1.252
	c0.494-0.273,1.021-0.412,1.581-0.412c1.879,0,2.819,0.995,2.819,2.983v5.77h-1.039v-5.72c0-0.703-0.147-1.238-0.444-1.607
	c-0.297-0.367-0.819-0.552-1.566-0.552c-0.45,0-0.824,0.085-1.12,0.255c-0.297,0.171-0.533,0.398-0.709,0.686
	c-0.176,0.285-0.3,0.611-0.371,0.98c-0.07,0.367-0.107,0.75-0.107,1.146v4.812h-1.037V50c0-0.285-0.031-0.558-0.091-0.815
	c-0.062-0.258-0.161-0.483-0.298-0.677c-0.137-0.191-0.321-0.343-0.553-0.453c-0.23-0.109-0.51-0.164-0.84-0.164
	c-0.439,0-0.822,0.079-1.145,0.239c-0.326,0.159-0.59,0.378-0.792,0.659c-0.204,0.28-0.354,0.609-0.453,0.988
	c-0.099,0.38-0.148,0.794-0.148,1.245v4.747H106v-8.507H106.957z"/>
<path fill="#FFFFFF" d="M125.047,47.379c0.5,0.243,0.919,0.566,1.261,0.973c0.341,0.407,0.599,0.883,0.774,1.426
	c0.176,0.544,0.263,1.124,0.263,1.74c0,0.615-0.087,1.194-0.263,1.737c-0.176,0.545-0.434,1.02-0.774,1.427
	c-0.342,0.405-0.761,0.729-1.261,0.964c-0.501,0.236-1.075,0.354-1.723,0.354c-0.648,0-1.223-0.118-1.723-0.354
	c-0.5-0.235-0.921-0.559-1.261-0.964c-0.341-0.407-0.6-0.882-0.775-1.427c-0.176-0.543-0.264-1.122-0.264-1.737
	c0-0.616,0.088-1.196,0.264-1.74c0.176-0.543,0.435-1.019,0.775-1.426c0.34-0.406,0.761-0.729,1.261-0.973
	c0.5-0.241,1.074-0.362,1.723-0.362C123.972,47.017,124.546,47.138,125.047,47.379 M122.023,48.204
	c-0.374,0.209-0.686,0.482-0.932,0.823c-0.247,0.341-0.435,0.728-0.561,1.163c-0.127,0.434-0.189,0.876-0.189,1.327
	c0,0.45,0.062,0.892,0.189,1.326c0.126,0.435,0.313,0.82,0.561,1.161c0.246,0.343,0.558,0.616,0.932,0.826
	c0.373,0.207,0.807,0.312,1.302,0.312s0.929-0.105,1.303-0.312c0.372-0.21,0.685-0.483,0.931-0.826
	c0.247-0.341,0.435-0.727,0.561-1.161c0.125-0.435,0.189-0.876,0.189-1.326c0-0.451-0.064-0.894-0.189-1.327
	c-0.126-0.436-0.313-0.822-0.561-1.163c-0.246-0.341-0.559-0.614-0.931-0.823c-0.374-0.209-0.808-0.312-1.303-0.312
	S122.396,47.995,122.023,48.204"/>
<path fill="#FFFFFF" d="M135.422,55.77v-1.616h-0.032c-0.109,0.276-0.272,0.528-0.487,0.76c-0.212,0.23-0.458,0.426-0.733,0.584
	c-0.273,0.159-0.567,0.283-0.881,0.371c-0.312,0.088-0.624,0.132-0.932,0.132c-0.65,0-1.211-0.118-1.69-0.354
	c-0.478-0.235-0.876-0.561-1.194-0.973c-0.318-0.411-0.554-0.891-0.709-1.434c-0.153-0.544-0.23-1.118-0.23-1.723
	c0-0.604,0.077-1.178,0.23-1.723c0.155-0.544,0.391-1.021,0.709-1.434s0.717-0.738,1.194-0.981c0.479-0.241,1.04-0.362,1.69-0.362
	c0.318,0,0.629,0.04,0.932,0.115c0.302,0.076,0.584,0.196,0.849,0.354c0.263,0.16,0.496,0.354,0.7,0.588
	c0.203,0.23,0.359,0.498,0.469,0.807h0.034V44h1.039v11.77H135.422z M129.728,52.828c0.104,0.433,0.269,0.82,0.494,1.161
	c0.225,0.34,0.514,0.619,0.865,0.831c0.352,0.215,0.775,0.323,1.27,0.323c0.549,0,1.014-0.108,1.392-0.323
	c0.381-0.212,0.688-0.491,0.924-0.831c0.235-0.341,0.406-0.729,0.512-1.161c0.104-0.435,0.156-0.872,0.156-1.312
	s-0.052-0.876-0.156-1.31c-0.105-0.435-0.276-0.821-0.512-1.164c-0.235-0.339-0.543-0.616-0.924-0.831
	c-0.378-0.215-0.843-0.321-1.392-0.321c-0.494,0-0.918,0.106-1.27,0.321s-0.641,0.492-0.865,0.831
	c-0.226,0.343-0.391,0.729-0.494,1.164c-0.104,0.434-0.157,0.87-0.157,1.31S129.624,52.394,129.728,52.828"/>
<path fill="#FFFFFF" d="M139.122,52.96c0.105,0.4,0.272,0.76,0.504,1.079c0.23,0.317,0.521,0.582,0.874,0.792
	c0.352,0.207,0.774,0.312,1.27,0.312c0.758,0,1.351-0.198,1.779-0.594c0.428-0.396,0.726-0.922,0.891-1.582h1.038
	c-0.22,0.967-0.624,1.714-1.211,2.24c-0.589,0.527-1.421,0.792-2.497,0.792c-0.671,0-1.25-0.118-1.738-0.354
	c-0.49-0.235-0.889-0.561-1.195-0.973c-0.309-0.411-0.537-0.891-0.686-1.434c-0.148-0.544-0.223-1.118-0.223-1.723
	c0-0.56,0.074-1.11,0.223-1.648c0.148-0.537,0.377-1.021,0.686-1.441c0.307-0.424,0.705-0.766,1.195-1.021
	c0.488-0.26,1.067-0.389,1.738-0.389c0.681,0,1.263,0.139,1.746,0.412c0.484,0.274,0.877,0.634,1.18,1.079
	c0.3,0.445,0.518,0.957,0.649,1.534c0.133,0.576,0.188,1.161,0.165,1.755h-6.543C138.966,52.171,139.019,52.559,139.122,52.96
	 M144.266,49.785c-0.128-0.362-0.306-0.683-0.536-0.962c-0.23-0.281-0.512-0.507-0.842-0.678c-0.328-0.17-0.703-0.255-1.119-0.255
	c-0.43,0-0.808,0.085-1.139,0.255c-0.329,0.171-0.61,0.396-0.841,0.678c-0.23,0.279-0.414,0.603-0.551,0.971
	c-0.138,0.369-0.228,0.745-0.272,1.129h5.506C144.46,50.527,144.392,50.148,144.266,49.785"/>
<path fill="#FFFFFF" d="M147.868,47.263v1.995h0.034c0.263-0.691,0.672-1.225,1.227-1.6c0.556-0.373,1.217-0.542,1.986-0.51v1.039
	c-0.474-0.022-0.9,0.04-1.286,0.188s-0.716,0.361-0.996,0.636c-0.281,0.273-0.497,0.601-0.652,0.979
	c-0.152,0.38-0.23,0.794-0.23,1.246v4.532h-1.039v-8.507H147.868z"/>
<path fill="#FFFFFF" d="M153.586,47.263v1.468h0.032c0.198-0.516,0.55-0.931,1.055-1.245c0.507-0.312,1.062-0.469,1.666-0.469
	c0.594,0,1.09,0.077,1.49,0.23c0.401,0.155,0.723,0.37,0.965,0.651c0.241,0.28,0.412,0.625,0.511,1.03
	c0.101,0.407,0.149,0.863,0.149,1.368v5.473h-1.039v-5.309c0-0.362-0.032-0.699-0.099-1.012c-0.065-0.313-0.181-0.587-0.347-0.817
	c-0.164-0.23-0.387-0.412-0.668-0.543c-0.279-0.133-0.629-0.198-1.045-0.198c-0.42,0-0.789,0.074-1.113,0.223
	s-0.6,0.351-0.824,0.609c-0.226,0.258-0.401,0.566-0.527,0.923c-0.128,0.357-0.195,0.745-0.206,1.162v4.962h-1.039v-8.507H153.586z"
	/>
</svg>
