<?xml version="1.0" encoding="utf-8"?>
<!-- Generator: Adobe Illustrator 13.0.2, SVG Export Plug-In . SVG Version: 6.00 Build 14948)  -->
<!DOCTYPE svg PUBLIC "-//W3C//DTD SVG 1.1 Tiny//EN" "http://www.w3.org/Graphics/SVG/1.1/DTD/svg11-tiny.dtd">
<svg version="1.1" baseProfile="tiny" id="Layer_1" xmlns="http://www.w3.org/2000/svg" xmlns:xlink="http://www.w3.org/1999/xlink"
	 x="0px" y="0px" width="1076px" height="430.399px" viewBox="154 1215 1076 430.399" xml:space="preserve">
<g>
	<path fill="#FFFFFF" d="M1212.127,1291.878c-0.584-4.197,0.724-2.913-4.319,0.636c-4.426,3.129-9.014,6.036-13.597,8.955
		c-16.556,10.543-33.612,20.327-50.806,29.784c-43.531,23.981-88.65,45.364-135.334,62.48
		c-41.278,15.143-93.304,31.984-136.847,17.122c-16.777-5.728-27.922-16.727-34.483-30.438
		c36.439-15.89,72.686-33.03,103.029-58.073c38.86-32.066,40.041-89.264-19.48-93.835c-73.326-5.633-121.225,86.409-101.738,147.167
		c-22.978,10.164-46.842,19.795-70.612,29.842c10.028-54.162,16.183-109.403,26.02-162.684c1.447-7.846-16.299-5.02-17.671,1.787
		c-10.888,53.835-49.316,109.111-88.954,145.685c-21.389,19.731-61.874,38.202-59.322-5.446c1.699-29.229,9.435-57.922,7.053-87.419
		c-6.971-86.246-82.743-95.667-147.285-70.694c-18.891-2.464-38.423-1.705-55.598,0.175c-91.253,10.029-177.966,57.84-255.1,104.395
		c-10.584,6.38,5.015,10.834,11.681,6.818c70.508-42.486,146.975-83.355,228.953-97.774c15.167-2.662,31.722-4.285,48.003-3.491
		c-14.419,7.694-27.711,17.011-38.733,27.461c-34.827,32.971-58.586,91.902-35.119,137.284
		c17.501,33.828,58.318,42.438,92.585,34.01c67.157-16.526,112.726-118.102,68.698-175.818
		c-11.682-15.318-28.196-24.326-46.422-29.311c19.686-5.557,40.712-6.859,60.49-2.452c32.621,7.269,45.417,35.769,49.533,66.397
		c4.116,30.578-3.824,61.891-6.661,92.229c-1.378,14.798-0.935,30.433,14.582,36.356c40.012,15.282,84.541-33.596,105.801-59.597
		c12.032-14.717,23.924-31.167,34.263-48.633c-5.12,33.134-10.134,66.31-16.503,99.188c-36.613,16.03-72.363,33.684-103.561,56.555
		c-37.495,27.496-76.047,78.144-73.191,127.033c1.541,26.41,22.229,46.105,48.159,47.438
		c53.638,2.762,88.873-60.262,107.472-100.869c18.103-39.498,29.492-81.377,38.031-124.084c14.928-6.27,29.661-12.375,43.66-18.727
		c11.19-5.067,22.633-9.977,34.109-14.921c9.428,19.095,26.789,33.753,53.857,38.891c73.747,14.003,159.229-28.365,223.413-59.369
		c32.831-15.861,64.934-33.415,96.082-52.364c5.966-3.625,34.536-16.602,33.188-26.328
		C1228.496,1280.326,1211.1,1284.483,1212.127,1291.878 M514.364,1264.704c65.136,70.228-55.072,228.252-122.497,135.049
		c-41.156-56.882,21.08-135.183,70.717-160.021c0.549-0.269,1.127-0.49,1.676-0.753
		C483.214,1242.44,500.867,1250.158,514.364,1264.704 M710.859,1487.813c-12.335,42.973-47.407,148.938-108.113,145.809
		c-49.247-2.527-31.021-69.557-18.867-94.377c27.682-56.498,84.389-86.061,141.446-110.741
		C721.197,1448.42,716.486,1468.222,710.859,1487.813 M925.474,1241.465c22.458,4.938,30.736,29.071,23.328,48.038
		c-7.979,20.443-30.088,34.699-47.379,46.397c-20.706,13.999-46.264,23.082-68.885,33.474
		C816.789,1313.408,863.158,1227.764,925.474,1241.465"/>
	<path fill="#FFFFFF" d="M792.861,1497.224v8.581h0.291c1.651-3.152,3.801-5.615,6.463-7.391c2.656-1.774,6.054-2.662,10.198-2.662
		c3.351,0,6.381,0.828,9.111,2.464c2.728,1.642,4.548,4.14,5.465,7.483c1.513-3.346,3.741-5.844,6.707-7.483
		c2.953-1.636,6.105-2.464,9.451-2.464c11.231,0,16.854,5.949,16.854,17.834v34.488h-6.212v-34.19c0-4.203-0.881-7.401-2.655-9.608
		c-1.775-2.195-4.898-3.299-9.364-3.299c-2.689,0-4.927,0.508-6.695,1.523c-1.773,1.021-3.188,2.383-4.237,4.099
		c-1.052,1.704-1.792,3.653-2.22,5.86c-0.42,2.195-0.642,4.484-0.642,6.848v28.77h-6.2v-34.489c0-1.704-0.187-3.333-0.543-4.874
		c-0.367-1.541-0.963-2.891-1.78-4.047c-0.816-1.143-1.92-2.049-3.304-2.707c-1.378-0.654-3.048-0.98-5.021-0.98
		c-2.627,0-4.916,0.473-6.843,1.43c-1.949,0.951-3.525,2.26-4.733,3.941c-1.222,1.676-2.119,3.643-2.709,5.907
		c-0.59,2.271-0.888,4.746-0.888,7.442v28.377h-6.212v-50.852L792.861,1497.224L792.861,1497.224z"/>
	<path fill="#FFFFFF" d="M901.003,1497.918c2.988,1.453,5.493,3.386,7.536,5.814c2.037,2.434,3.578,5.276,4.629,8.522
		c1.051,3.251,1.57,6.719,1.57,10.401c0,3.678-0.521,7.141-1.57,10.385c-1.051,3.259-2.592,6.096-4.629,8.529
		c-2.043,2.422-4.548,4.354-7.536,5.762c-2.995,1.412-6.428,2.119-10.298,2.119c-3.876,0-7.309-0.707-10.298-2.119
		c-2.988-1.406-5.505-3.34-7.536-5.762c-2.038-2.435-3.585-5.271-4.636-8.529c-1.051-3.244-1.576-6.707-1.576-10.385
		c0-3.684,0.525-7.15,1.576-10.401c1.051-3.246,2.598-6.089,4.636-8.522c2.031-2.43,4.548-4.361,7.536-5.814
		c2.989-1.441,6.422-2.166,10.298-2.166C894.576,1495.752,898.008,1496.477,901.003,1497.918 M882.923,1502.851
		c-2.234,1.249-4.098,2.884-5.567,4.921c-1.479,2.038-2.599,4.35-3.353,6.953c-0.759,2.592-1.132,5.236-1.132,7.934
		c0,2.691,0.373,5.33,1.132,7.928c0.754,2.599,1.874,4.904,3.353,6.941c1.471,2.049,3.333,3.684,5.567,4.938
		c2.23,1.238,4.822,1.867,7.782,1.867s5.552-0.629,7.787-1.867c2.225-1.256,4.093-2.889,5.562-4.938
		c1.478-2.037,2.599-4.344,3.352-6.941c0.747-2.598,1.133-5.235,1.133-7.928c0-2.697-0.386-5.342-1.133-7.934
		c-0.753-2.604-1.874-4.915-3.352-6.953c-1.471-2.037-3.339-3.672-5.562-4.921c-2.235-1.249-4.827-1.868-7.787-1.868
		S885.154,1501.602,882.923,1502.851"/>
	<path fill="#FFFFFF" d="M963.023,1548.075v-9.66h-0.193c-0.653,1.652-1.629,3.158-2.913,4.541c-1.267,1.377-2.737,2.545-4.384,3.49
		c-1.635,0.953-3.393,1.693-5.267,2.219c-1.867,0.525-3.729,0.789-5.568,0.789c-3.889,0-7.238-0.707-10.104-2.119
		c-2.854-1.407-5.235-3.352-7.14-5.814c-1.903-2.457-3.311-5.324-4.238-8.568c-0.917-3.252-1.378-6.686-1.378-10.299
		c0-3.607,0.461-7.039,1.378-10.297c0.93-3.252,2.335-6.107,4.238-8.57s4.284-4.414,7.14-5.867c2.866-1.44,6.218-2.166,10.104-2.166
		c1.902,0,3.76,0.24,5.568,0.689c1.805,0.455,3.491,1.174,5.073,2.113c1.57,0.957,2.966,2.119,4.187,3.514
		c1.214,1.379,2.146,2.979,2.802,4.822h0.204v-29.171h6.212v70.354H963.023z M928.983,1530.493c0.619,2.586,1.604,4.902,2.953,6.94
		c1.344,2.031,3.07,3.701,5.173,4.968c2.102,1.284,4.635,1.932,7.589,1.932c3.281,0,6.06-0.646,8.318-1.932
		c2.276-1.267,4.115-2.937,5.521-4.968c1.407-2.038,2.429-4.354,3.06-6.94c0.624-2.598,0.935-5.213,0.935-7.84
		s-0.311-5.236-0.935-7.828c-0.631-2.599-1.651-4.91-3.06-6.959c-1.406-2.025-3.245-3.685-5.521-4.969
		c-2.26-1.283-5.038-1.921-8.318-1.921c-2.954,0-5.487,0.638-7.589,1.921c-2.103,1.284-3.829,2.942-5.173,4.969
		c-1.349,2.049-2.335,4.36-2.953,6.959c-0.624,2.592-0.939,5.201-0.939,7.828S928.359,1527.895,928.983,1530.493"/>
	<path fill="#FFFFFF" d="M985.135,1531.282c0.631,2.394,1.629,4.541,3.014,6.449c1.377,1.896,3.11,3.479,5.225,4.734
		c2.102,1.238,4.629,1.867,7.589,1.867c4.53,0,8.073-1.184,10.636-3.549c2.559-2.369,4.338-5.51,5.324-9.457h6.205
		c-1.312,5.779-3.729,10.246-7.238,13.393c-3.52,3.152-8.494,4.734-14.927,4.734c-4.011,0-7.472-0.707-10.392-2.119
		c-2.931-1.407-5.312-3.352-7.146-5.814c-1.845-2.457-3.211-5.324-4.099-8.568c-0.888-3.252-1.331-6.686-1.331-10.299
		c0-3.346,0.443-6.638,1.331-9.854c0.888-3.211,2.254-6.102,4.099-8.617c1.833-2.533,4.215-4.576,7.146-6.105
		c2.92-1.553,6.381-2.324,10.392-2.324c4.069,0,7.548,0.83,10.438,2.465c2.896,1.641,5.241,3.788,7.052,6.449
		c1.793,2.662,3.094,5.722,3.883,9.173c0.793,3.442,1.12,6.94,0.986,10.489h-39.112
		C984.207,1526.565,984.523,1528.881,985.135,1531.282 M1015.888,1512.302c-0.765-2.165-1.827-4.08-3.205-5.75
		c-1.377-1.681-3.059-3.028-5.03-4.052c-1.962-1.016-4.203-1.523-6.69-1.523c-2.568,0-4.828,0.508-6.807,1.523
		c-1.969,1.021-3.648,2.371-5.026,4.052c-1.378,1.67-2.475,3.603-3.293,5.804c-0.822,2.207-1.359,4.453-1.628,6.748h32.913
		C1017.05,1516.739,1016.641,1514.474,1015.888,1512.302"/>
	<path fill="#FFFFFF" d="M1037.417,1497.224v11.927h0.204c1.57-4.134,4.017-7.32,7.333-9.562c3.321-2.23,7.273-3.24,11.873-3.049
		v6.213c-2.831-0.135-5.382,0.238-7.688,1.125c-2.307,0.889-4.278,2.16-5.955,3.802c-1.682,1.636-2.971,3.59-3.898,5.854
		c-0.911,2.271-1.378,4.746-1.378,7.449v27.092h-6.211v-50.852L1037.417,1497.224L1037.417,1497.224z"/>
	<path fill="#FFFFFF" d="M1071.603,1497.224v8.772h0.192c1.187-3.082,3.287-5.562,6.305-7.441c3.03-1.867,6.347-2.803,9.959-2.803
		c3.551,0,6.516,0.461,8.908,1.378c2.399,0.929,4.32,2.213,5.769,3.894c1.441,1.676,2.464,3.736,3.054,6.159
		c0.603,2.435,0.894,5.16,0.894,8.179v32.715h-6.212v-31.733c0-2.166-0.191-4.181-0.59-6.048c-0.391-1.875-1.08-3.51-2.072-4.887
		c-0.979-1.377-2.312-2.463-3.992-3.246c-1.669-0.793-3.76-1.186-6.246-1.186c-2.511,0-4.717,0.443-6.655,1.331
		c-1.938,0.888-3.584,2.097-4.927,3.644c-1.35,1.541-2.399,3.385-3.152,5.517c-0.765,2.138-1.167,4.455-1.23,6.946v29.662h-6.212
		v-50.853H1071.603z"/>
</g>
</svg>
